<svg id="cnt" xmlns="http://www.w3.org/2000/svg" viewBox="0 0 47.91 48.23"><defs><style>.cls-1{fill:#c29f64;}</style></defs><title>home</title><path class="cls-1" d="M23.79,0a24.12,24.12,0,0,0,0,48.23A24.12,24.12,0,1,0,23.79,0Zm5.15,37.3a7.43,7.43,0,0,1-2.9,1,6.26,6.26,0,0,1-2.57.32,5.76,5.76,0,0,1-3.53-1,3.12,3.12,0,0,1-1.29-2.89V33.44c.32-.32.32-.64.32-1.29l1.61-5.46c0-.65.32-1,.32-1.61V23.79a2.4,2.4,0,0,0-.32-1.6A6.34,6.34,0,0,0,19,21.86a1.92,1.92,0,0,0-1.29.33c-.32,0-.64.32-1,.32L17,20.9a11.9,11.9,0,0,1,2.9-1.29,8,8,0,0,1,2.57-.32,5.12,5.12,0,0,1,3.53,1,3.11,3.11,0,0,1,1.29,2.89v1.29A2.4,2.4,0,0,1,27,26L25.4,31.51a13.67,13.67,0,0,0-.32,1.61V34.4A2.45,2.45,0,0,0,25.72,36a2.43,2.43,0,0,0,1.61.32A2.47,2.47,0,0,0,28.62,36a3.22,3.22,0,0,0,1-.32Zm-.32-22.19a3.9,3.9,0,0,1-5.15,0,2.91,2.91,0,0,1-1-2.25,4.28,4.28,0,0,1,1-2.57,3.9,3.9,0,0,1,5.15,0,2.93,2.93,0,0,1,1.28,2.57A2.42,2.42,0,0,1,28.62,15.11Z"/></svg>
