<svg id="cnt" xmlns="http://www.w3.org/2000/svg" viewBox="0 0 44.55 46.99"><defs><style>.cls-1{fill:#e11515;}</style></defs><title>home</title><path class="cls-1" d="M28.55.41a3.37,3.37,0,0,0-3.31.05s-.16.18-.21.22L11.12,12.51H.26c-.56,0,0,.21,0,.77V32.69c0,.27-.41.53-.22.72s.19.3.47.3h10.7L25,46.41l.13.12a3.14,3.14,0,0,0,1.6.46,4.41,4.41,0,0,0,1.84-.42,3.46,3.46,0,0,0,1.92-2.81V3.23A3.5,3.5,0,0,0,28.55.41Z"/><path class="cls-1" d="M33.6,8.43a2.36,2.36,0,0,0-1.82.2,2.45,2.45,0,0,0-1.14,1.43,2.36,2.36,0,0,0,.2,1.82A2.4,2.4,0,0,0,32.28,13a10.36,10.36,0,0,1,0,19.91,2.39,2.39,0,0,0-1.64,3,2.4,2.4,0,0,0,2.3,1.73,2.34,2.34,0,0,0,.66-.09,15.15,15.15,0,0,0,0-29.11Z"/></svg>