<svg id="cnt" xmlns="http://www.w3.org/2000/svg" viewBox="0 0 46.25 43.3"><defs><style>.cls-1{fill:#e11515;}</style></defs><title>home</title><path class="cls-1" d="M2.89,23.07V40.41A2.89,2.89,0,0,0,5.78,43.3H20.23V23.07Z"/><path class="cls-1" d="M43.36,11.51H34.21a11.56,11.56,0,0,0,1.62-1.3,6,6,0,0,0,0-8.5,6.11,6.11,0,0,0-8.48,0c-1.26,1.26-4.58,6.38-4.12,9.8H23c.46-3.42-2.87-8.54-4.12-9.8a6.11,6.11,0,0,0-8.48,0,6,6,0,0,0,0,8.5A11.56,11.56,0,0,0,12,11.51H2.89A2.89,2.89,0,0,0,0,14.4v4.33a1.45,1.45,0,0,0,1.45,1.45H20.23V14.4H26v5.78H44.8a1.45,1.45,0,0,0,1.45-1.45V14.4A2.89,2.89,0,0,0,43.36,11.51Zm-23.3-.1a.9.9,0,0,1-.53.1c-2,0-5.81-2.08-7.06-3.33a3.16,3.16,0,0,1,0-4.43,3.07,3.07,0,0,1,4.38,0C18.8,5.71,20.74,10.71,20.06,11.41Zm6.66.1a.9.9,0,0,1-.53-.1c-.68-.7,1.26-5.7,3.21-7.66a3.11,3.11,0,0,1,4.38,4.43C32.53,9.43,28.72,11.51,26.72,11.51Z"/><path class="cls-1" d="M26,23.07V43.3H40.47a2.89,2.89,0,0,0,2.89-2.89V23.07Z"/></svg>