<svg id="cnt" xmlns="http://www.w3.org/2000/svg" viewBox="0 0 47.91 47.91"><defs><style>.cls-1{fill:#e11515;}</style></defs><title>home</title><path class="cls-1" d="M23.63,0A24,24,0,1,0,47.91,23.63,24,24,0,0,0,23.63,0Zm-.07,38.54h-.13a3.49,3.49,0,0,1,.08-7h.12a3.49,3.49,0,1,1-.07,7Zm8.57-17a16,16,0,0,1-2.86,2.56l-1.46,1a4,4,0,0,0-1.47,1.79,3.71,3.71,0,0,0-.22,1.5v.23H20.53l0-.47c.07-1.94.11-3.09.92-4a24.24,24.24,0,0,1,4.16-3.35,4.3,4.3,0,0,0,1-1,3.53,3.53,0,0,0,.85-2.07,4,4,0,0,0-.77-2.38,3.19,3.19,0,0,0-2.76-1,3,3,0,0,0-2.79,1.29,5.23,5.23,0,0,0-.85,2.79v.24H14.55v-.25c.15-3.53,1.4-6.06,3.74-7.55a9.84,9.84,0,0,1,5.41-1.42,11.71,11.71,0,0,1,7,2,7,7,0,0,1,2.83,6A6.89,6.89,0,0,1,32.13,21.53Z"/></svg>