<svg id="cnt" xmlns="http://www.w3.org/2000/svg" viewBox="0 0 58.5 54.36"><defs><style>.cls-1{fill:#e11515;}</style></defs><title>home</title><path class="cls-1" d="M29.25,0a1.72,1.72,0,0,0-1.72,1.71V6.86a1.72,1.72,0,0,0,3.43,0V1.71A1.71,1.71,0,0,0,29.25,0Z"/><path class="cls-1" d="M20.18,10.78,16.75,7.36a1.71,1.71,0,0,0-2.42,2.42l3.42,3.43a1.72,1.72,0,1,0,2.43-2.43Z"/><path class="cls-1" d="M44.17,7.36a1.71,1.71,0,0,0-2.42,0l-3.43,3.42a1.71,1.71,0,0,0,2.42,2.43l3.43-3.43A1.71,1.71,0,0,0,44.17,7.36Z"/><path class="cls-1" d="M56.78,24H51.53V48h5.25a1.72,1.72,0,0,0,1.72-1.72V25.71A1.72,1.72,0,0,0,56.78,24Z"/><path class="cls-1" d="M1.71,24A1.72,1.72,0,0,0,0,25.71V46.27A1.72,1.72,0,0,0,1.71,48H7V24Z"/><path class="cls-1" d="M27.94,25.71a3.41,3.41,0,0,0-3.07,1.89L19.66,38a6.86,6.86,0,0,0,8.87-3.22l1.12-2.26H33a3.43,3.43,0,0,1,2.42,1L48.1,46.27V25.71Z"/><path class="cls-1" d="M33,36h-1.2l-.1.2A10.46,10.46,0,0,1,23.29,42a12.54,12.54,0,0,1-6.68-1.54,1.73,1.73,0,0,1-.83-2.34l6-12.06a6.85,6.85,0,0,1,6.13-3.79h7.4a8.36,8.36,0,0,0,.76-3.43,1.7,1.7,0,0,0-1.71-1.71H21.08A5.16,5.16,0,0,0,16.48,20L15,23a1.69,1.69,0,0,1-1.53.95h-3V48h7.86l4.85,4.85a5.09,5.09,0,0,0,5.18,1.27l14.64-4.6a5,5,0,0,0,2.21-1.35Z"/></svg>