<?xml version="1.0" encoding="utf-8"?>
<!-- Generator: Adobe Illustrator 24.1.3, SVG Export Plug-In . SVG Version: 6.00 Build 0)  -->
<svg version="1.1" id="圖層_1" xmlns="http://www.w3.org/2000/svg" xmlns:xlink="http://www.w3.org/1999/xlink" x="0px" y="0px"
	 viewBox="0 0 23 18" style="enable-background:new 0 0 23 18;" xml:space="preserve">
<style type="text/css">
	.st0{fill:#00DDFF;}
</style>
<g id="menu">
	<path class="st0" d="M19.5,18h-16C1.6,18,0,16.5,0,14.6c0,0,0,0,0,0v-11C0,1.6,1.5,0,3.4,0c0,0,0,0,0,0h16C21.4,0,23,1.5,23,3.4
		c0,0,0,0,0,0v11C23,16.4,21.5,18,19.5,18C19.5,18,19.5,18,19.5,18z M3.5,1C2.1,1,1,2.1,1,3.5v11C1,15.8,2.1,17,3.4,17c0,0,0,0,0,0
		h16c1.4,0,2.5-1.1,2.5-2.4c0,0,0,0,0,0v-11C22,2.2,20.9,1,19.6,1c0,0,0,0,0,0H3.5z"/>
	<polygon class="st0" points="11.5,11.2 1.3,1.5 2,0.8 11.5,9.8 20.6,0.6 21.4,1.3 	"/>
	<rect x="17" y="6.8" transform="matrix(0.7071 -0.7071 0.7071 0.7071 -3.7139 16.0356)" class="st0" width="1" height="11.3"/>
	<rect x="-0.2" y="12" transform="matrix(0.7071 -0.7071 0.7071 0.7071 -7.2319 7.5472)" class="st0" width="11.3" height="1"/>
</g>
</svg>
