<?xml version="1.0" encoding="utf-8"?>
<!-- Generator: Adobe Illustrator 24.1.3, SVG Export Plug-In . SVG Version: 6.00 Build 0)  -->
<svg version="1.1" id="圖層_1" xmlns="http://www.w3.org/2000/svg" xmlns:xlink="http://www.w3.org/1999/xlink" x="0px" y="0px"
	 viewBox="0 0 134.7 42" style="enable-background:new 0 0 134.7 42;" xml:space="preserve">
<style type="text/css">
	.st0{fill:url(#SVGID_1_);}
	.st1{fill:url(#SVGID_2_);}
	.st2{fill:url(#SVGID_3_);}
	.st3{fill:url(#SVGID_4_);}
</style>
<g>
	<linearGradient id="SVGID_1_" gradientUnits="userSpaceOnUse" x1="-30.4715" y1="-21.832" x2="129.9243" y2="133.2174">
		<stop  offset="0" style="stop-color:#2E7BFF"/>
		<stop  offset="1" style="stop-color:#7C4BFF"/>
	</linearGradient>
	<path class="st0" d="M0,0h18.5c5,0,8.6,0.7,10.9,2.2c2.3,1.5,3.4,3.9,3.4,7.3v1.8c0,4-2.3,6.3-7,7.1c2.9,0.5,4.9,1.5,6,3.1
		c1.2,1.6,1.8,3.8,1.8,6.5c0,4.4-1.1,7.8-3.3,10.1c-2.2,2.3-6.1,3.4-11.8,3.4H0V0z M16.2,15.6c1.2,0,2-0.3,2.4-0.8
		c0.4-0.5,0.6-1.3,0.6-2.3V8.4c0-1.4-1-2-2.9-2h-2.9v9.3H16.2z M20,31.2V26c0-1.3-0.3-2.2-0.9-2.9c-0.6-0.6-1.7-1-3.2-1h-2.5v12.1
		l1.4,0C18.3,34.3,20,33.3,20,31.2z"/>
	<linearGradient id="SVGID_2_" gradientUnits="userSpaceOnUse" x1="-12.0642" y1="-40.8743" x2="148.3318" y2="114.1753">
		<stop  offset="0" style="stop-color:#2E7BFF"/>
		<stop  offset="1" style="stop-color:#7C4BFF"/>
	</linearGradient>
	<path class="st1" d="M38.1,0h18.5c5,0,8.6,0.7,10.9,2.2c2.3,1.5,3.4,3.9,3.4,7.3v1.8c0,4-2.3,6.3-7,7.1c2.9,0.5,4.9,1.5,6,3.1
		c1.2,1.6,1.8,3.8,1.8,6.5c0,4.4-1.1,7.8-3.3,10.1c-2.2,2.3-6.1,3.4-11.8,3.4H38.1V0z M54.3,15.6c1.2,0,2-0.3,2.4-0.8
		c0.4-0.5,0.6-1.3,0.6-2.3V8.4c0-1.4-1-2-2.9-2h-2.9v9.3H54.3z M58.2,31.2V26c0-1.3-0.3-2.2-0.9-2.9c-0.6-0.6-1.7-1-3.2-1h-2.5v12.1
		l1.4,0C56.4,34.3,58.2,33.3,58.2,31.2z"/>
	<linearGradient id="SVGID_3_" gradientUnits="userSpaceOnUse" x1="6.2756" y1="-59.8465" x2="166.6717" y2="95.2032">
		<stop  offset="0" style="stop-color:#2E7BFF"/>
		<stop  offset="1" style="stop-color:#7C4BFF"/>
	</linearGradient>
	<path class="st2" d="M79.4,39c-2.6-2-3.9-5-3.9-9V15.8c0-3.3,1.5-5.7,4.6-7.5c3.1-1.7,7.4-2.6,12.9-2.6c11.2,0,16.8,3.3,16.8,10
		v2.6c0,2.6-0.1,4.7-0.2,6.3H89.4v6.9c0,1.2,0.2,2.2,0.6,2.9c0.4,0.7,1.3,1,2.7,1c1.1,0,1.8-0.2,2.3-0.6c0.4-0.4,0.7-0.8,0.8-1.3
		c0.1-0.5,0.1-1.2,0.1-2.2v-3.4h13.8v2c0,4.1-1.3,7.2-3.9,9.1c-2.6,2-7.1,2.9-13.6,2.9C86.3,42,82,41,79.4,39z M95.9,20.4v-4.6
		c0-2.6-1-3.8-3.1-3.8c-2.3,0-3.5,1.3-3.5,3.8v4.6H95.9z"/>
	<linearGradient id="SVGID_4_" gradientUnits="userSpaceOnUse" x1="23.5426" y1="-77.7085" x2="183.9384" y2="77.3409">
		<stop  offset="0" style="stop-color:#2E7BFF"/>
		<stop  offset="1" style="stop-color:#7C4BFF"/>
	</linearGradient>
	<path class="st3" d="M119.2,40.6c-1.4-0.9-2.1-2.4-2.1-4.5V14h-3.9V7.5h3.9V0h13.5v7.5h4V14h-4v19.9c0,0.6,0.1,1.1,0.2,1.4
		c0.2,0.3,0.6,0.4,1.3,0.4c0.5,0,1,0,1.5,0c0.5,0,0.8,0,1,0v5.8c-0.8,0.1-1.9,0.3-3.5,0.4c-1.5,0.1-3,0.2-4.4,0.2
		C123.1,42,120.6,41.5,119.2,40.6z"/>
</g>
</svg>
