<?xml version="1.0" encoding="utf-8"?>
<!-- Generator: Adobe Illustrator 24.1.3, SVG Export Plug-In . SVG Version: 6.00 Build 0)  -->
<svg version="1.1" id="cnt" xmlns="http://www.w3.org/2000/svg" xmlns:xlink="http://www.w3.org/1999/xlink" x="0px" y="0px"
	 viewBox="0 0 44.5 47" style="enable-background:new 0 0 44.5 47;" xml:space="preserve">
<style type="text/css">
	.st0{fill:#3D4CCE;}
</style>
<path class="st0" d="M28.5,0.4c-1-0.6-2.3-0.5-3.3,0.1c0,0-0.2,0.2-0.2,0.2L11.1,12.5H0.3c-0.6,0,0,0.2,0,0.8v19.4
	c0,0.3-0.4,0.5-0.2,0.7s0.2,0.3,0.5,0.3h10.7L25,46.4l0.1,0.1c0.5,0.3,1,0.5,1.6,0.5c0.6,0,1.3-0.1,1.8-0.4c1.1-0.5,1.8-1.6,1.9-2.8
	V3.2C30.4,2,29.6,0.9,28.5,0.4z"/>
<path class="st0" d="M33.6,8.4c-0.6-0.2-1.3-0.1-1.8,0.2c-0.6,0.3-1,0.8-1.1,1.4c-0.2,0.6-0.1,1.3,0.2,1.8c0.3,0.5,0.8,1,1.4,1.1
	c5.5,1.6,8.7,7.3,7.1,12.8c-1,3.4-3.7,6.1-7.1,7.1c-1.3,0.4-2,1.7-1.7,2.9c0,0,0,0,0,0.1c0.3,1,1.2,1.7,2.3,1.7c0.2,0,0.4,0,0.7-0.1
	c8-2.3,12.7-10.7,10.4-18.8C42.5,13.8,38.6,9.9,33.6,8.4L33.6,8.4z"/>
</svg>
