<?xml version="1.0" encoding="utf-8"?>
<!-- Generator: Adobe Illustrator 22.0.1, SVG Export Plug-In . SVG Version: 6.00 Build 0)  -->
<svg version="1.1" id="圖層_1" xmlns="http://www.w3.org/2000/svg" xmlns:xlink="http://www.w3.org/1999/xlink" x="0px" y="0px"
	 viewBox="0 0 42.9 42.9" style="enable-background:new 0 0 42.9 42.9;" xml:space="preserve">
<style type="text/css">
	.st0{fill:#CCA172;}
	.st1{fill:#FFFFFF;}
	.st2{fill:#1D2083;}
	.st3{fill:#D7D8D8;}
	.st4{fill:#333333;}
</style>
<g>
	<g>
		<g>
			<g>
				<g>
					<path class="st0" d="M21.5,21c1.8,0,3.4-0.7,4.7-1.9c1.3-1.3,1.9-2.9,1.9-4.7c0-1.8-0.7-3.4-1.9-4.7c-1.3-1.3-2.9-1.9-4.7-1.9
						c-1.8,0-3.4,0.7-4.7,1.9c-1.3,1.3-1.9,2.9-1.9,4.7c0,1.8,0.7,3.4,1.9,4.7C18.1,20.3,19.6,21,21.5,21z M17.9,10.7
						c1-1,2.2-1.5,3.6-1.5c1.4,0,2.6,0.5,3.6,1.5c1,1,1.5,2.2,1.5,3.6c0,1.4-0.5,2.6-1.5,3.6c-1,1-2.2,1.5-3.6,1.5
						c-1.4,0-2.6-0.5-3.6-1.5c-1-1-1.5-2.2-1.5-3.6C16.4,12.9,16.9,11.7,17.9,10.7z"/>
				</g>
			</g>
			<g>
				<g>
					<path class="st0" d="M32.9,28.9c0-0.5-0.1-1.1-0.2-1.7c-0.1-0.6-0.3-1.2-0.4-1.8c-0.2-0.6-0.4-1.1-0.7-1.6
						c-0.3-0.5-0.7-1-1.1-1.4c-0.4-0.4-1-0.7-1.6-1c-0.6-0.2-1.3-0.4-2-0.4c-0.3,0-0.6,0.1-1.1,0.5c-0.3,0.2-0.7,0.5-1.1,0.7
						c-0.4,0.2-0.9,0.4-1.5,0.6c-0.6,0.2-1.2,0.3-1.8,0.3c-0.6,0-1.2-0.1-1.8-0.3c-0.6-0.2-1.1-0.4-1.5-0.6
						c-0.4-0.3-0.8-0.5-1.1-0.7C16.6,21.1,16.3,21,16,21c-0.7,0-1.4,0.1-2,0.4c-0.6,0.2-1.1,0.6-1.6,1c-0.4,0.4-0.8,0.9-1.1,1.4
						c-0.3,0.5-0.5,1.1-0.7,1.6c-0.2,0.5-0.3,1.1-0.4,1.8c-0.1,0.6-0.2,1.2-0.2,1.7c0,0.5-0.1,1.1-0.1,1.6c0,1.4,0.5,2.6,1.4,3.5
						c0.9,0.8,2.1,1.3,3.5,1.3h13.3c1.4,0,2.6-0.4,3.5-1.3c0.9-0.9,1.4-2,1.4-3.5C33,30,33,29.4,32.9,28.9z M30.5,32.8
						c-0.6,0.6-1.4,0.8-2.4,0.8H14.8c-1,0-1.8-0.3-2.4-0.8c-0.6-0.6-0.9-1.3-0.9-2.3c0-0.5,0-1,0.1-1.5c0-0.5,0.1-1,0.2-1.6
						c0.1-0.6,0.2-1.1,0.4-1.5c0.1-0.5,0.3-0.9,0.6-1.3c0.2-0.4,0.5-0.8,0.8-1c0.3-0.3,0.6-0.5,1-0.6c0.4-0.2,0.8-0.2,1.3-0.2
						c0.1,0,0.2,0.1,0.3,0.2c0.3,0.2,0.7,0.5,1.1,0.7c0.5,0.3,1.1,0.6,1.8,0.8c0.8,0.2,1.5,0.4,2.3,0.4c0.8,0,1.5-0.1,2.3-0.4
						c0.7-0.2,1.4-0.5,1.8-0.8c0.4-0.3,0.8-0.5,1.1-0.7c0.2-0.1,0.3-0.2,0.3-0.2c0.5,0,0.9,0.1,1.3,0.2c0.4,0.2,0.8,0.4,1,0.6
						c0.3,0.3,0.6,0.6,0.8,1c0.2,0.4,0.4,0.9,0.6,1.3c0.2,0.5,0.3,1,0.4,1.5c0.1,0.6,0.2,1.1,0.2,1.6v0c0,0.5,0.1,1,0.1,1.5
						C31.4,31.5,31.1,32.3,30.5,32.8z"/>
				</g>
			</g>
		</g>
	</g>
	<path class="st0" d="M21.5,42.9C9.6,42.9,0,33.3,0,21.5S9.6,0,21.5,0s21.5,9.6,21.5,21.5S33.3,42.9,21.5,42.9z M21.5,1.5
		c-11,0-20,9-20,20s9,20,20,20s20-9,20-20S32.5,1.5,21.5,1.5z"/>
</g>
</svg>
