<?xml version="1.0" encoding="utf-8"?>
<!-- Generator: Adobe Illustrator 24.1.3, SVG Export Plug-In . SVG Version: 6.00 Build 0)  -->
<svg version="1.1" id="圖層_1" xmlns="http://www.w3.org/2000/svg" xmlns:xlink="http://www.w3.org/1999/xlink" x="0px" y="0px"
	 viewBox="0 0 20.2 20.2" style="enable-background:new 0 0 20.2 20.2;" xml:space="preserve">
<style type="text/css">
	.st0{fill:#00DDFF;}
</style>
<g id="menu">
	<path class="st0" d="M10.1,18.5H2.5c-0.5,0-0.8-0.4-0.8-0.8V2.5c0-0.5,0.4-0.8,0.8-0.8h7.6c0.5,0,0.8-0.4,0.8-0.8
		c0-0.5-0.4-0.8-0.9-0.8c0,0,0,0,0,0H2.5C1.1,0,0,1.1,0,2.5c0,0,0,0,0,0v15.1c0,1.4,1.1,2.5,2.5,2.5c0,0,0,0,0,0h7.6
		c0.5,0,0.8-0.4,0.8-0.8l0,0C10.9,18.9,10.6,18.5,10.1,18.5C10.1,18.5,10.1,18.5,10.1,18.5z"/>
	<path class="st0" d="M20,9.5l-5.1-5c-0.3-0.3-0.9-0.3-1.2,0c-0.3,0.3-0.3,0.9,0,1.2l3.6,3.6H7.6c-0.5,0-0.8,0.4-0.8,0.8
		s0.4,0.8,0.8,0.8h9.8l-3.6,3.6c-0.3,0.3-0.3,0.9,0,1.2c0,0,0,0,0,0c0.2,0.2,0.4,0.3,0.6,0.3c0.2,0,0.4-0.1,0.6-0.2l5.1-5.1
		C20.3,10.3,20.3,9.8,20,9.5C20,9.5,20,9.5,20,9.5z"/>
</g>
</svg>
