<svg xmlns="http://www.w3.org/2000/svg" viewBox="0 0 26 26"><defs><style>.cls-1{fill:#f6cb27;}</style></defs><title>home</title><g id="menu"><path class="cls-1" d="M13,12.69a3.87,3.87,0,0,0,2.85-1.18A3.9,3.9,0,0,0,17,8.66a3.94,3.94,0,0,0-1.18-2.85,4,4,0,0,0-5.7,0A3.94,3.94,0,0,0,9,8.66a3.9,3.9,0,0,0,1.18,2.85A3.87,3.87,0,0,0,13,12.69ZM10.84,6.51a3,3,0,0,1,4.32,0,2.9,2.9,0,0,1,.89,2.15A3,3,0,0,1,13,11.71,3,3,0,0,1,10,8.66,2.9,2.9,0,0,1,10.84,6.51Z"/><path class="cls-1" d="M20,17.5a8.85,8.85,0,0,0-.14-1.06,8.21,8.21,0,0,0-.26-1.06,4.83,4.83,0,0,0-.44-1,3.81,3.81,0,0,0-.65-.86,3,3,0,0,0-.95-.6,3.38,3.38,0,0,0-1.21-.21,1.23,1.23,0,0,0-.65.27l-.69.44a3.88,3.88,0,0,1-.88.39,3.33,3.33,0,0,1-2.16,0,3.88,3.88,0,0,1-.88-.39L10.35,13a1.23,1.23,0,0,0-.65-.27,3.18,3.18,0,0,0-1.21.22,2.78,2.78,0,0,0-1,.59,3.81,3.81,0,0,0-.65.86,4.83,4.83,0,0,0-.44,1,8.21,8.21,0,0,0-.26,1.06,8.85,8.85,0,0,0-.14,1.06q0,.48,0,1a2.8,2.8,0,0,0,.82,2.1A3,3,0,0,0,9,21.37H17a3,3,0,0,0,2.13-.78,2.8,2.8,0,0,0,.82-2.1Q20,18,20,17.5Zm-1.47,2.38a2,2,0,0,1-1.45.51H9a2,2,0,0,1-1.45-.51A1.81,1.81,0,0,1,7,18.49c0-.31,0-.62,0-.92a9.14,9.14,0,0,1,.12-.95,7.61,7.61,0,0,1,.23-.94,4.46,4.46,0,0,1,.36-.81,2.62,2.62,0,0,1,.48-.63,2,2,0,0,1,.63-.39,2.34,2.34,0,0,1,.77-.15l.2.12.69.44a4.82,4.82,0,0,0,1.11.5,4.44,4.44,0,0,0,2.76,0,4.82,4.82,0,0,0,1.11-.5l.69-.44.2-.12a2.34,2.34,0,0,1,.77.15,2,2,0,0,1,.63.39,2.62,2.62,0,0,1,.48.63,4.46,4.46,0,0,1,.36.81,7.61,7.61,0,0,1,.23.94,9.14,9.14,0,0,1,.12.95h0c0,.3,0,.61,0,.92A1.81,1.81,0,0,1,18.48,19.88Z"/><path class="cls-1" d="M13,26A13,13,0,1,1,26,13,13,13,0,0,1,13,26ZM13,.9A12.1,12.1,0,1,0,25.1,13,12.12,12.12,0,0,0,13,.9Z"/></g></svg>