<?xml version="1.0" encoding="utf-8"?>
<!-- Generator: Adobe Illustrator 24.1.3, SVG Export Plug-In . SVG Version: 6.00 Build 0)  -->
<svg version="1.1" id="圖層_1" xmlns="http://www.w3.org/2000/svg" xmlns:xlink="http://www.w3.org/1999/xlink" x="0px" y="0px"
	 viewBox="0 0 11.2 14.7" style="enable-background:new 0 0 11.2 14.7;" xml:space="preserve">
<style type="text/css">
	.st0{fill:#c29f64;}
	.st1{fill:#FFFFFF;}
</style>
<g>
	<path class="st0" d="M8,4.1c-1.8,0-3.3,1.5-3.3,3.3c0,0.7,0.2,1.3,0.6,1.9l-0.4,0.9l1-0.2c0.6,0.4,1.3,0.7,2,0.7
		c1.8,0,3.3-1.5,3.3-3.3S9.8,4.1,8,4.1z"/>
	<path class="st0" d="M7.9,11.4c-0.2,0-0.3,0-0.5-0.1c0,0.1,0,0.3,0,0.4c-2.1,0-4.3,0-6.4,0C1,8.8,1,5.9,1,3c2.2,0,4.3,0,6.4,0
		c0,0.1,0,0.3,0,0.4c0.2,0,0.3,0,0.5,0c0.2,0,0.4,0,0.5,0c0-0.6,0-1.1,0-1.7C8.4,0.6,7.8,0,6.8,0C5.1,0,3.4,0,1.7,0
		C0.6,0,0,0.6,0,1.7c0,2.2,0,4.5,0,6.7c0,1.6,0,3.1,0,4.7c0,1,0.7,1.6,1.7,1.6c1.7,0,3.4,0,5.1,0c1,0,1.7-0.7,1.7-1.7
		c0-0.6,0-1.1,0-1.7C8.3,11.3,8.1,11.4,7.9,11.4z M3.2,1.3c0.7,0,1.4,0,2.1,0c0.1,0,0.3,0,0.3,0.2c0,0.2-0.1,0.2-0.3,0.2
		c-0.3,0-0.7,0-1,0s-0.7,0-1,0c-0.1,0-0.3,0-0.3-0.2C3,1.3,3.1,1.3,3.2,1.3z M4.2,13.7c-0.3,0-0.5-0.2-0.5-0.5
		c0-0.3,0.2-0.5,0.5-0.5c0.3,0,0.5,0.2,0.5,0.5C4.7,13.5,4.5,13.7,4.2,13.7z"/>
	<circle class="st1" cx="6.2" cy="7.3" r="0.4"/>
	<circle class="st1" cx="8" cy="7.3" r="0.4"/>
	<circle class="st1" cx="9.8" cy="7.3" r="0.4"/>
</g>
</svg>
