<?xml version="1.0" encoding="utf-8"?>
<!-- Generator: Adobe Illustrator 24.1.3, SVG Export Plug-In . SVG Version: 6.00 Build 0)  -->
<svg version="1.1" id="圖層_1" xmlns="http://www.w3.org/2000/svg" xmlns:xlink="http://www.w3.org/1999/xlink" x="0px" y="0px"
	 viewBox="0 0 12.7 9.9" style="enable-background:new 0 0 12.7 9.9;" xml:space="preserve">
<style type="text/css">
	.st0{fill:#c29f64;}
</style>
<g>
	<path class="st0" d="M10.8,9.9H1.9C0.9,9.9,0,9.1,0,8V1.9C0,0.9,0.9,0,1.9,0h8.9c1.1,0,1.9,0.9,1.9,1.9V8
		C12.7,9.1,11.8,9.9,10.8,9.9z M1.9,0.5c-0.8,0-1.4,0.6-1.4,1.4V8c0,0.8,0.6,1.4,1.4,1.4h8.9c0.8,0,1.4-0.6,1.4-1.4V1.9
		c0-0.8-0.6-1.4-1.4-1.4C10.8,0.5,1.9,0.5,1.9,0.5z"/>
	<polygon class="st0" points="6.3,6.2 0.7,0.8 1.1,0.4 6.3,5.4 11.4,0.4 11.8,0.7 	"/>
	<rect x="9.4" y="3.8" transform="matrix(0.7071 -0.7071 0.7071 0.7071 -2.049 8.8494)" class="st0" width="0.5" height="6.2"/>
	<rect x="-0.1" y="6.6" transform="matrix(0.7071 -0.7071 0.7071 0.7071 -3.99 4.1634)" class="st0" width="6.2" height="0.5"/>
</g>
</svg>
