<?xml version="1.0" encoding="utf-8"?>
<!-- Generator: Adobe Illustrator 24.1.3, SVG Export Plug-In . SVG Version: 6.00 Build 0)  -->
<svg version="1.1" id="圖層_1" xmlns="http://www.w3.org/2000/svg" xmlns:xlink="http://www.w3.org/1999/xlink" x="0px" y="0px"
	 viewBox="0 0 12.8 15" style="enable-background:new 0 0 12.8 15;" xml:space="preserve">
<style type="text/css">
	.st0{fill:#c29f64;}
</style>
<g>
	<g>
		<path class="st0" d="M6.4,7.5c-2.1,0-3.7-1.7-3.8-3.7c0-1,0.4-1.9,1.1-2.7C4.4,0.4,5.4,0,6.4,0l0,0l0,0c1,0,1.9,0.4,2.6,1.1
			c0.7,0.7,1.1,1.6,1.1,2.7S9.7,5.7,9,6.4S7.4,7.5,6.4,7.5L6.4,7.5z M6.4,1C5.6,1,4.9,1.3,4.4,1.8S3.6,3,3.6,3.7
			c0,1.5,1.2,2.7,2.7,2.7l0,0c0.7,0,1.4-0.3,1.9-0.8s0.8-1.2,0.8-1.9S8.8,2.3,8.3,1.8C7.8,1.3,7.1,1,6.4,1C6.4,1,6.4,1,6.4,1L6.4,1z
			"/>
		<path class="st0" d="M0,15v-0.5C0,11,2.8,8.1,6.4,8.1l0,0h0c1.7,0,3.3,0.7,4.5,1.9s1.9,2.8,1.9,4.5V15L0,15z M6.4,9.1
			C3.6,9.1,1.3,11.3,1,14l10.7,0c-0.1-1.3-0.7-2.4-1.6-3.3C9.2,9.7,7.8,9.1,6.4,9.1C6.4,9.1,6.4,9.1,6.4,9.1L6.4,9.1z"/>
	</g>
</g>
</svg>
