<?xml version="1.0" encoding="utf-8"?>
<!-- Generator: Adobe Illustrator 24.1.3, SVG Export Plug-In . SVG Version: 6.00 Build 0)  -->
<svg version="1.1" id="圖層_1" xmlns="http://www.w3.org/2000/svg" xmlns:xlink="http://www.w3.org/1999/xlink" x="0px" y="0px"
	 viewBox="0 0 12.1 14" style="enable-background:new 0 0 12.1 14;" xml:space="preserve">
<style type="text/css">
	.st0{fill:#c29f64;}
</style>
<g>
	<path class="st0" d="M9.6,0c0.1,0,0.3,0.1,0.4,0.1c1,0.3,1.7,1.1,1.7,2.2c0,2,0,3.9,0,5.9c0,0.3-0.2,0.6-0.5,0.6
		c-0.3,0-0.5-0.2-0.5-0.6c0-0.1,0-0.2,0-0.3c0-1.8,0-3.6,0-5.4c0-0.8-0.5-1.3-1.3-1.3c-2.3,0-4.7,0-7,0c-0.8,0-1.3,0.5-1.3,1.3
		c0,3.1,0,6.1,0,9.2c0,0.8,0.5,1.3,1.3,1.3c1.5,0,3.1,0,4.7,0c0.5,0,0.8,0.3,0.6,0.7c-0.1,0.2-0.2,0.3-0.3,0.4c-1.8,0-3.5,0-5.3,0
		c-0.4-0.2-0.8-0.3-1.1-0.5C0.4,13.1,0.1,12.6,0,12C0,8.7,0,5.3,0,2c0,0,0-0.1,0.1-0.2c0.2-0.9,0.8-1.5,1.7-1.8C1.9,0,2,0,2.2,0
		C4.7,0,7.2,0,9.6,0z"/>
	<path class="st0" d="M12.1,11.6c-0.1,0.5-0.3,1-0.6,1.3c-0.8,0.9-2,1.1-3,0.5c-1-0.6-1.5-1.7-1.2-2.8c0.3-1.1,1.3-1.9,2.4-1.8
		c1.1,0,2.1,0.9,2.3,2c0,0.1,0,0.1,0.1,0.2C12.1,11.1,12.1,11.3,12.1,11.6z M9.2,11.6c0.5,0,0.9,0,1.4,0c0.3,0,0.4-0.2,0.4-0.4
		c0-0.2-0.2-0.4-0.4-0.4c-0.2,0-0.4,0-0.6,0c0-0.3,0-0.6,0-0.8c0-0.2-0.1-0.4-0.4-0.4c-0.2,0-0.4,0.1-0.4,0.4
		C9.2,10.5,9.2,11.1,9.2,11.6z"/>
	<path class="st0" d="M5.9,3.4c0.9,0,1.8,0,2.8,0c0.4,0,0.6,0.2,0.6,0.5c0,0.3-0.2,0.6-0.6,0.6c-1.8,0-3.7,0-5.6,0
		C2.7,4.5,2.5,4.3,2.5,4c0-0.3,0.2-0.5,0.6-0.5C4,3.4,5,3.4,5.9,3.4z"/>
	<path class="st0" d="M5.9,7.4c-0.9,0-1.8,0-2.8,0c-0.4,0-0.6-0.2-0.6-0.5c0-0.3,0.2-0.5,0.7-0.5c1.8,0,3.7,0,5.5,0
		c0.5,0,0.8,0.4,0.5,0.8C9.1,7.4,8.9,7.4,8.7,7.4C7.7,7.4,6.8,7.4,5.9,7.4z"/>
	<path class="st0" d="M4.2,10.4c-0.4,0-0.8,0-1.1,0c-0.3,0-0.6-0.2-0.5-0.5c0-0.3,0.2-0.5,0.5-0.5c0.8,0,1.5,0,2.3,0
		c0.3,0,0.6,0.2,0.5,0.6c0,0.3-0.2,0.5-0.6,0.5C4.9,10.4,4.6,10.4,4.2,10.4z"/>
</g>
</svg>
