<?xml version="1.0" encoding="utf-8"?>
<!-- Generator: Adobe Illustrator 24.1.3, SVG Export Plug-In . SVG Version: 6.00 Build 0)  -->
<svg version="1.1" id="圖層_1" xmlns="http://www.w3.org/2000/svg" xmlns:xlink="http://www.w3.org/1999/xlink" x="0px" y="0px"
	 viewBox="0 0 16 16" style="enable-background:new 0 0 16 16;" xml:space="preserve">
<style type="text/css">
	.st0{fill:#c29f64;}
</style>
<path class="st0" d="M8,16c-4.4,0-8-3.6-8-8s3.6-8,8-8s8,3.6,8,8S12.4,16,8,16z M8,1C4.1,1,1,4.1,1,8s3.1,7,7,7s7-3.1,7-7
	S11.9,1,8,1z M13.2,11.5H2.8V6.3L5.3,7L8,4.3L10.6,7l2.6-0.7C13.2,6.3,13.2,11.5,13.2,11.5z M3.8,10.5h8.4V7.6l-1.9,0.5L8,5.7
	L5.7,8.1L3.8,7.6L3.8,10.5L3.8,10.5z"/>
</svg>
