<?xml version="1.0" encoding="utf-8"?>
<!-- Generator: Adobe Illustrator 24.1.3, SVG Export Plug-In . SVG Version: 6.00 Build 0)  -->
<svg version="1.1" id="圖層_1" xmlns="http://www.w3.org/2000/svg" xmlns:xlink="http://www.w3.org/1999/xlink" x="0px" y="0px"
	 viewBox="0 0 14 11.6" style="enable-background:new 0 0 14 11.6;" xml:space="preserve">
<style type="text/css">
	.st0{fill:#c29f64;}
</style>
<g>
	<g>
		<g>
			<path class="st0" d="M12,0H2C0.9,0,0,0.9,0,2v7.5c0,1.1,0.9,2,2,2h10c1.1,0,2-0.9,2-2V2C14,0.9,13.1,0,12,0z M13.2,7h-3
				C9.6,7,9,6.5,9,5.8s0.5-1.2,1.2-1.2h3L13.2,7L13.2,7z M13.2,3.8h-3c-1.1,0-2,0.9-2,2s0.9,2,2,2h3v1.7c0,0.7-0.5,1.2-1.2,1.2H2
				c-0.7,0-1.2-0.5-1.2-1.2V2c0-0.7,0.5-1.2,1.2-1.2h10c0.7,0,1.2,0.5,1.2,1.2V3.8L13.2,3.8z"/>
		</g>
	</g>
	<g>
		<g>
			<path class="st0" d="M10.8,5.4h-0.5c-0.2,0-0.4,0.2-0.4,0.4c0,0.2,0.2,0.4,0.4,0.4h0.5c0.2,0,0.4-0.2,0.4-0.4
				C11.2,5.6,11,5.4,10.8,5.4z"/>
		</g>
	</g>
</g>
</svg>
