<?xml version="1.0" encoding="utf-8"?>
<!-- Generator: Adobe Illustrator 21.1.0, SVG Export Plug-In . SVG Version: 6.00 Build 0)  -->
<svg version="1.1" id="圖層_1" xmlns="http://www.w3.org/2000/svg" xmlns:xlink="http://www.w3.org/1999/xlink" x="0px" y="0px"
	 viewBox="0 0 37.7 38" style="enable-background:new 0 0 37.7 38;" xml:space="preserve">
<style type="text/css">
	.st0{display:none;}
	.st1{display:inline;}
	.st2{clip-path:url(#SVGID_2_);}
	.st3{fill:#008BEA;}
	.st4{fill:#EC6C00;}
	.st5{fill:#FFFFFF;}
</style>
<g id="bg" class="st0">
	<g id="XMLID_2_" class="st1">
		<g>
			<defs>
				<rect id="SVGID_1_" x="-516.4" y="88.4" width="1920" height="921"/>
			</defs>
			<clipPath id="SVGID_2_">
				<use xlink:href="#SVGID_1_"  style="overflow:visible;"/>
			</clipPath>
			<g id="XMLID_163_" class="st2">
				
					<image style="overflow:visible;enable-background:new    ;" width="2048" height="1152" id="XMLID_124_" xlink:href="ED1DED2E.jpeg"  transform="matrix(1 0 0 1 -580.3581 -86.6162)">
				</image>
			</g>
		</g>
	</g>
</g>
<g id="content">
	<g>
		<g>
			<path class="st3" d="M3.9,4.8C3.8,6.4,3.6,7.8,3.2,9L2,8.4c0.3-1,0.5-2.3,0.6-3.9L3.9,4.8z M7.7,6.8l-0.9,1
				C6.5,7.3,6.2,6.9,5.7,6.4v9.4H4.3V1.2h1.5v3.4C6.5,5.2,7.2,6,7.7,6.8z M16.9,9.7h-5.3c-0.4,2.5-1.9,4.6-4.4,6.3l-1.1-1.2
				c2.3-1.4,3.6-3.1,3.9-5.1H6.5V8.3h3.7c0.1-0.8,0.1-1.9,0.1-3.2h-3V3.6h3.1c0-0.9,0-1.7,0-2.4h1.5c0,0.9,0,1.7,0,2.4h3.9v4.7H17
				v1.4H16.9z M17,15l-1.2,1c-1.2-1.5-2.5-2.9-4.2-4.2l1.1-1C14.5,12.1,15.9,13.5,17,15z M14.2,8.3V5h-2.3c0,1.4-0.1,2.5-0.1,3.2
				h2.4V8.3z"/>
			<path class="st3" d="M24.3,5.6h-1.2v2.7c0.3-0.1,0.7-0.3,1.2-0.5v1.5c-0.2,0.1-0.6,0.3-1.2,0.5v4.4c0,1.1-0.7,1.7-2,1.7
				c-0.2,0-0.5,0-0.8,0l-0.4-1.5c0.7,0,1.1,0,1.2,0s0.3-0.1,0.4-0.2c0.1-0.1,0.2-0.3,0.2-0.4v-3.5c-0.5,0.2-1.1,0.3-1.6,0.5
				l-0.2-1.5c0.6-0.2,1.2-0.4,1.8-0.6V5.6H20V4.2h1.7V1.1h1.4v3.1h1.2C24.3,4.2,24.3,5.6,24.3,5.6z M34.9,14.4l-0.6,1.4
				c-2.7,0-4.6-0.1-5.6-0.2c-1-0.2-1.8-0.7-2.5-1.4c-0.4,0.7-0.9,1.3-1.4,1.9l-1.2-0.9c1.1-1,1.9-2.4,2.4-4.4l1.4,0.4
				C27.2,12,27,12.6,26.8,13c0.3,0.4,0.9,0.8,1.7,1.1v-3.7h-3.3V9h3.3V8h-3.9V6.7h3.9v-1h-3.3V4.5h3.3V3.6h-3.9V2.3h3.9V1.1h1.4v1.1
				h4.7v1.4h-4.7v0.9h3.6v2.2h1.1V8h-1.1v2.3h-3.7v1.2H34v1.4h-4.2v1.4c0.9,0.1,1.9,0.1,3.1,0.1C33.5,14.4,34.2,14.4,34.9,14.4z
				 M32.3,6.7v-1H30v1H32.3z M32.3,9V8H30v1H32.3z"/>
		</g>
		<path id="XMLID_49_" class="st4" d="M34.8,36.9h-32C1.3,36.9,0,35.6,0,34V22.7c0-1.6,1.3-2.8,2.8-2.8h32c1.6,0,2.8,1.3,2.8,2.8V34
			C37.7,35.6,36.4,36.9,34.8,36.9z"/>
		<g>
			<path class="st5" d="M18,33.6l-0.7,1.3c-2.1-0.4-4.1-1.1-5.9-1.9c-1.8,0.9-3.7,1.5-5.9,1.9l-0.7-1.4c2.1-0.3,3.9-0.8,5.2-1.4
				c-1.1-0.9-2.3-2.2-3.4-3.9H5.8v-1.3h4.8v-2H4.8v-1.3h5.9v-1.8h1.4v1.8h5.8v1.3h-5.8v2h4.1v1.3c-1.2,1.8-2.3,3-3.4,3.9
				C14.1,32.7,15.8,33.2,18,33.6z M14.4,28.2H8.3c1.2,1.5,2.2,2.6,3.1,3.1C12.4,30.6,13.4,29.6,14.4,28.2z"/>
			<path class="st5" d="M24,21.8c-0.2,0.5-0.4,1.1-0.7,1.8l-0.5,1v10.1h-1.4v-7.5c-0.2,0.4-0.5,0.8-0.9,1.3L19.7,27
				c1.2-1.5,2.2-3.3,2.8-5.5L24,21.8z M33,25.5h-1.7v7.6c0,0.8-0.2,1.3-0.5,1.5s-0.9,0.3-1.7,0.3c-0.4,0-0.7,0-1.1-0.1l-0.4-1.3
				c0.7,0,1.3,0.1,1.9,0.1c0.1,0,0.2,0,0.3-0.1c0.1-0.1,0.1-0.2,0.1-0.3v-7.6h-6.2v-1.3h6.2v-2.5h1.4v2.5H33V25.5z M28.3,31
				l-1.2,0.7c-0.5-1.3-1.3-2.7-2.2-4.1l1.2-0.6C27,28.2,27.7,29.6,28.3,31z"/>
		</g>
	</g>
</g>
</svg>
