<?xml version="1.0" encoding="utf-8"?>
<!-- Generator: Adobe Illustrator 24.1.3, SVG Export Plug-In . SVG Version: 6.00 Build 0)  -->
<svg version="1.1" id="圖層_1" xmlns="http://www.w3.org/2000/svg" xmlns:xlink="http://www.w3.org/1999/xlink" x="0px" y="0px"
	 viewBox="0 0 91.8 91.8" style="enable-background:new 0 0 91.8 91.8;" xml:space="preserve">
<style type="text/css">
	.st0{fill:#008DFF;}
</style>
<g id="XMLID_1727_">
	<g id="XMLID_1101_">
		<path id="XMLID_1121_" class="st0" d="M16.7,18.4c-0.4-0.6-1.2-0.9-1.9-0.7c-0.7,0.2-1.2,0.8-1.3,1.5L12.4,30
			c-0.1,1,0.6,1.9,1.6,2c0.1,0,0.1,0,0.2,0c0.9,0,1.7-0.7,1.8-1.6l0.7-6.1l3.6,4.9c0.6,0.8,1.7,1,2.5,0.4c0.8-0.6,1-1.7,0.4-2.5
			L16.7,18.4z"/>
		<path id="XMLID_1254_" class="st0" d="M86.4,13.6H56.1L53.5,4c-0.4-1.4-1.3-2.5-2.5-3.3C49.8,0,48.3-0.2,47,0.2L4,11.7
			c-1.4,0.4-2.5,1.3-3.3,2.5c-0.7,1.2-0.9,2.7-0.5,4.1l17.5,65.1c0.4,1.4,1.3,2.6,2.5,3.3c0.8,0.5,1.8,0.7,2.7,0.7
			c0.5,0,0.9-0.1,1.4-0.2l12.4-3.3v2.5c0,3,2.4,5.4,5.4,5.4h44.5c3,0,5.4-2.4,5.4-5.4V60.8c0-1-0.8-1.8-1.8-1.8s-1.8,0.8-1.8,1.8
			v25.6c0,1-0.8,1.8-1.8,1.8H42c-1,0-1.8-0.8-1.8-1.8V19c0-1,0.8-1.8,1.8-1.8h44.5c1,0,1.8,0.8,1.8,1.8v25.7c0,1,0.8,1.8,1.8,1.8
			s1.8-0.8,1.8-1.8V19C91.8,16,89.4,13.6,86.4,13.6z M36.6,50.9c-1.8,1.8-4.5,2.2-6.7,0.9c-2.6-1.5-3.6-4.9-2-7.6l5.8-10.1l2.9,1.7
			V50.9z M36.6,19v12.7l-2.7-1.5c-0.9-0.5-2-0.2-2.5,0.7l-6.7,11.7c-1.2,2.1-1.5,4.6-0.9,6.9c0.6,2.4,2.1,4.3,4.3,5.5
			c1.5,0.8,3,1.2,4.6,1.2c1.3,0,2.7-0.3,3.9-0.9v24.9l-13.3,3.6c-0.5,0.1-1,0.1-1.4-0.2s-0.7-0.6-0.8-1.1L3.7,17.4
			c-0.3-1,0.3-1.9,1.3-2.2l43-11.5c0.5-0.1,1-0.1,1.4,0.2s0.7,0.6,0.8,1.1l2.3,8.7H42C39,13.6,36.6,16,36.6,19L36.6,19z"/>
		<path id="XMLID_1258_" class="st0" d="M55.4,35.7c0.9-0.4,1.4-1.4,1-2.3l-3.9-10c-0.3-0.7-0.9-1.1-1.7-1.1c-0.7,0-1.4,0.5-1.7,1.1
			l-3.9,10c-0.4,0.9,0.1,2,1,2.3c0.2,0.1,0.4,0.1,0.7,0.1c0.7,0,1.4-0.4,1.7-1.2l2.2-5.7l2.2,5.7C53.4,35.6,54.5,36.1,55.4,35.7
			L55.4,35.7z"/>
		<path id="XMLID_1259_" class="st0" d="M75.9,82.1c0.3,0.7,0.9,1.2,1.7,1.2s1.4-0.5,1.7-1.2l3.9-10c0.4-0.9-0.1-2-1-2.3
			c-0.9-0.4-2,0.1-2.3,1l-2.2,5.7l-2.2-5.7c-0.4-0.9-1.4-1.4-2.3-1c-0.9,0.4-1.4,1.4-1,2.3L75.9,82.1z"/>
		<path id="XMLID_1324_" class="st0" d="M62.9,66.4c0.3,0.3,0.8,0.5,1.3,0.5s0.9-0.2,1.3-0.5l9.5-9.5c3.6-3.6,3.6-9.4,0-12.9l0,0
			c-2.9-2.9-7.3-3.5-10.8-1.6c-3.5-1.9-7.9-1.3-10.8,1.6c-3.6,3.6-3.6,9.4,0,12.9L62.9,66.4z M55.9,46.4c1.1-1.1,2.5-1.6,3.9-1.6
			c1.1,0,2.3,0.3,3.3,1c0.6,0.5,1.5,0.5,2.1,0c2.2-1.6,5.3-1.4,7.2,0.6c2.2,2.2,2.2,5.7,0,7.9l-8.3,8.3l-8.3-8.3
			C53.8,52.1,53.8,48.6,55.9,46.4L55.9,46.4z"/>
		<path id="XMLID_1325_" class="st0" d="M90,50.9c-0.5,0-0.9,0.2-1.3,0.5c-0.3,0.3-0.5,0.8-0.5,1.3s0.2,0.9,0.5,1.3
			c0.3,0.3,0.8,0.5,1.3,0.5s0.9-0.2,1.3-0.5c0.3-0.3,0.5-0.8,0.5-1.3s-0.2-0.9-0.5-1.3S90.5,50.9,90,50.9z"/>
	</g>
</g>
</svg>
