<?xml version="1.0" encoding="utf-8"?>
<!-- Generator: Adobe Illustrator 24.1.3, SVG Export Plug-In . SVG Version: 6.00 Build 0)  -->
<svg version="1.1" id="圖層_1" xmlns="http://www.w3.org/2000/svg" xmlns:xlink="http://www.w3.org/1999/xlink" x="0px" y="0px"
	 viewBox="0 0 60 60" style="enable-background:new 0 0 60 60;" xml:space="preserve">
<style type="text/css">
	.st0{fill:#008DFF;}
</style>
<g>
	<g>
		<g>
			<path class="st0" d="M58.8,57.5H1.3c-0.7,0-1.3,0.6-1.3,1.3S0.6,60,1.3,60h57.5c0.7,0,1.3-0.6,1.3-1.3S59.4,57.5,58.8,57.5z"/>
		</g>
	</g>
	<g>
		<g>
			<path class="st0" d="M11.3,42.5H3.8c-0.7,0-1.3,0.6-1.3,1.3v15c0,0.7,0.6,1.3,1.3,1.3h7.5c0.7,0,1.3-0.6,1.3-1.3v-15
				C12.5,43.1,11.9,42.5,11.3,42.5z M10,57.5H5V45h5V57.5L10,57.5z"/>
		</g>
	</g>
	<g>
		<g>
			<path class="st0" d="M26.3,30h-7.5c-0.7,0-1.3,0.6-1.3,1.3v27.5c0,0.7,0.6,1.3,1.3,1.3h7.5c0.7,0,1.3-0.6,1.3-1.3V31.2
				C27.5,30.6,26.9,30,26.3,30z M25,57.5h-5v-25h5V57.5L25,57.5z"/>
		</g>
	</g>
	<g>
		<g>
			<path class="st0" d="M41.3,35h-7.5c-0.7,0-1.3,0.6-1.3,1.3v22.5c0,0.7,0.6,1.3,1.3,1.3h7.5c0.7,0,1.3-0.6,1.3-1.3V36.2
				C42.5,35.6,41.9,35,41.3,35z M40,57.5h-5v-20h5V57.5z"/>
		</g>
	</g>
	<g>
		<g>
			<path class="st0" d="M56.3,20h-7.5c-0.7,0-1.3,0.6-1.3,1.3v37.5c0,0.7,0.6,1.3,1.3,1.3h7.5c0.7,0,1.3-0.6,1.3-1.3V21.2
				C57.5,20.6,56.9,20,56.3,20z M55,57.5h-5v-35h5V57.5z"/>
		</g>
	</g>
	<g>
		<g>
			<path class="st0" d="M7.5,22.5c-2.8,0-5,2.2-5,5s2.2,5,5,5s5-2.2,5-5S10.3,22.5,7.5,22.5z M7.5,30C6.1,30,5,28.9,5,27.5
				S6.1,25,7.5,25s2.5,1.1,2.5,2.5S8.9,30,7.5,30z"/>
		</g>
	</g>
	<g>
		<g>
			<path class="st0" d="M22.5,10c-2.8,0-5,2.2-5,5s2.2,5,5,5s5-2.2,5-5S25.3,10,22.5,10z M22.5,17.5c-1.4,0-2.5-1.1-2.5-2.5
				s1.1-2.5,2.5-2.5S25,13.6,25,15S23.9,17.5,22.5,17.5z"/>
		</g>
	</g>
	<g>
		<g>
			<path class="st0" d="M37.5,15c-2.8,0-5,2.2-5,5s2.2,5,5,5s5-2.2,5-5S40.3,15,37.5,15z M37.5,22.5c-1.4,0-2.5-1.1-2.5-2.5
				s1.1-2.5,2.5-2.5S40,18.6,40,20S38.9,22.5,37.5,22.5z"/>
		</g>
	</g>
	<g>
		<g>
			<path class="st0" d="M52.5,0c-2.8,0-5,2.2-5,5s2.2,5,5,5s5-2.2,5-5S55.3,0,52.5,0z M52.5,7.5C51.1,7.5,50,6.4,50,5
				s1.1-2.5,2.5-2.5S55,3.6,55,5S53.9,7.5,52.5,7.5z"/>
		</g>
	</g>
	<g>
		<g>
			<path class="st0" d="M50.7,6.8c-0.5-0.5-1.3-0.5-1.8,0l-9.7,9.7c-0.5,0.5-0.5,1.3,0,1.8c0.3,0.2,0.6,0.4,0.9,0.4s0.6-0.1,0.9-0.4
				l9.7-9.7C51.2,8,51.2,7.2,50.7,6.8z"/>
		</g>
	</g>
	<g>
		<g>
			<path class="st0" d="M34.5,17.1l-8-2.3c-0.7-0.2-1.4,0.2-1.5,0.9c-0.2,0.7,0.2,1.4,0.9,1.5l8,2.3c0.1,0,0.2,0,0.3,0
				c0.5,0,1-0.4,1.2-0.9C35.5,18,35.1,17.3,34.5,17.1z"/>
		</g>
	</g>
	<g>
		<g>
			<path class="st0" d="M20.5,16.6c-0.4-0.5-1.2-0.6-1.8-0.2l-9.4,7.5c-0.5,0.4-0.6,1.2-0.2,1.8c0.3,0.3,0.6,0.5,1,0.5
				c0.3,0,0.6-0.1,0.8-0.3l9.4-7.5C20.9,17.9,21,17.1,20.5,16.6z"/>
		</g>
	</g>
</g>
</svg>
