<?xml version="1.0" encoding="utf-8"?>
<!-- Generator: Adobe Illustrator 24.1.3, SVG Export Plug-In . SVG Version: 6.00 Build 0)  -->
<svg version="1.1" id="圖層_1" xmlns="http://www.w3.org/2000/svg" xmlns:xlink="http://www.w3.org/1999/xlink" x="0px" y="0px"
	 viewBox="0 0 61.1 58.5" style="enable-background:new 0 0 61.1 58.5;" xml:space="preserve">
<style type="text/css">
	.st0{fill:#008DFF;}
</style>
<g>
	<path class="st0" d="M17.8,58.5C9.2,58.5,0,55.9,0,50.9c0-0.7,0.6-1.3,1.3-1.3s1.3,0.6,1.3,1.3C2.5,53,8.4,56,17.8,56
		s15.3-3,15.3-5.1c0-0.7,0.6-1.3,1.3-1.3s1.3,0.6,1.3,1.3C35.6,55.9,26.5,58.5,17.8,58.5z"/>
	<path class="st0" d="M17.8,50.9C9.2,50.9,0,48.2,0,43.3C0,42.6,0.6,42,1.3,42s1.3,0.6,1.3,1.3c0,2.1,5.8,5.1,15.3,5.1
		s15.3-3,15.3-5.1c0-0.7,0.6-1.3,1.3-1.3s1.3,0.6,1.3,1.3C35.6,48.2,26.5,50.9,17.8,50.9z"/>
	<path class="st0" d="M17.8,43.3C9.2,43.3,0,40.6,0,35.6S9.2,28,17.8,28s17.8,2.7,17.8,7.6C35.6,40.6,26.5,43.3,17.8,43.3z
		 M17.8,30.5c-9.5,0-15.3,3-15.3,5.1c0,2.1,5.8,5.1,15.3,5.1s15.3-3,15.3-5.1C33.1,33.5,27.3,30.5,17.8,30.5z"/>
	<path class="st0" d="M1.3,52.2c-0.7,0-1.3-0.6-1.3-1.3V35.6c0-0.7,0.6-1.3,1.3-1.3s1.3,0.6,1.3,1.3v15.3C2.5,51.6,2,52.2,1.3,52.2z
		"/>
	<path class="st0" d="M34.4,52.2c-0.7,0-1.3-0.6-1.3-1.3V35.6c0-0.7,0.6-1.3,1.3-1.3s1.3,0.6,1.3,1.3v15.3
		C35.6,51.6,35.1,52.2,34.4,52.2z"/>
	<path class="st0" d="M43.3,28c-8.6,0-17.8-2.7-17.8-7.6c0-0.7,0.6-1.3,1.3-1.3s1.3,0.6,1.3,1.3c0,2.1,5.8,5.1,15.3,5.1
		s15.3-3,15.3-5.1c0-0.7,0.6-1.3,1.3-1.3s1.3,0.6,1.3,1.3C61.1,25.3,51.9,28,43.3,28z"/>
	<path class="st0" d="M43.3,43.3c-1.5,0-2.8-0.1-4-0.2c-0.7-0.1-1.2-0.7-1.1-1.4c0.1-0.7,0.7-1.2,1.4-1.1c1.1,0.1,2.3,0.2,3.7,0.2
		c9.5,0,15.3-3,15.3-5.1c0-0.7,0.6-1.3,1.3-1.3s1.3,0.6,1.3,1.3C61.1,40.6,51.9,43.3,43.3,43.3z"/>
	<path class="st0" d="M43.3,50.9c-1.5,0-2.8-0.1-4-0.2c-0.7-0.1-1.2-0.7-1.1-1.4c0.1-0.7,0.7-1.2,1.4-1.1c1.1,0.1,2.3,0.2,3.7,0.2
		c9.5,0,15.3-3,15.3-5.1c0-0.7,0.6-1.3,1.3-1.3s1.3,0.6,1.3,1.3C61.1,48.2,51.9,50.9,43.3,50.9z"/>
	<path class="st0" d="M43.3,35.6c-1.5,0-2.8-0.1-4-0.2c-0.7-0.1-1.2-0.7-1.1-1.4c0.1-0.7,0.7-1.2,1.4-1.1c1.1,0.1,2.3,0.2,3.7,0.2
		c9.5,0,15.3-3,15.3-5.1c0-0.7,0.6-1.3,1.3-1.3s1.3,0.6,1.3,1.3C61.1,32.9,51.9,35.6,43.3,35.6z"/>
	<path class="st0" d="M43.3,20.4c-8.6,0-17.8-2.7-17.8-7.6s9.2-7.6,17.8-7.6s17.8,2.7,17.8,7.6S51.9,20.4,43.3,20.4z M43.3,7.6
		c-9.5,0-15.3,3-15.3,5.1s5.8,5.1,15.3,5.1s15.3-3,15.3-5.1S52.7,7.6,43.3,7.6z"/>
	<path class="st0" d="M26.7,21.6c-0.7,0-1.3-0.6-1.3-1.3v-7.6c0-0.7,0.6-1.3,1.3-1.3S28,12,28,12.7v7.6C28,21.1,27.4,21.6,26.7,21.6
		z"/>
	<path class="st0" d="M1.3,15.3c-0.3,0-0.6-0.1-0.9-0.4c-0.5-0.5-0.5-1.3,0-1.8l6.4-6.4c0.4-0.4,1-0.5,1.5-0.2l4.3,2.1l8.3-8.3
		c0.5-0.5,1.3-0.5,1.8,0s0.5,1.3,0,1.8l-8.9,8.9c-0.4,0.4-1,0.5-1.5,0.2L7.9,9.2l-5.7,5.7C1.9,15.1,1.6,15.3,1.3,15.3L1.3,15.3z"/>
	<path class="st0" d="M21.6,10.2c-0.7,0-1.3-0.6-1.3-1.3V2.5H14c-0.7,0-1.3-0.6-1.3-1.3S13.3,0,14,0h7.6c0.7,0,1.3,0.6,1.3,1.3v7.6
		C22.9,9.6,22.3,10.2,21.6,10.2z"/>
</g>
</svg>
