<?xml version="1.0" encoding="utf-8"?>
<!-- Generator: Adobe Illustrator 24.1.3, SVG Export Plug-In . SVG Version: 6.00 Build 0)  -->
<svg version="1.1" id="圖層_1" xmlns="http://www.w3.org/2000/svg" xmlns:xlink="http://www.w3.org/1999/xlink" x="0px" y="0px"
	 viewBox="0 0 39 58.5" style="enable-background:new 0 0 39 58.5;" xml:space="preserve">
<style type="text/css">
	.st0{fill:#008DFF;}
</style>
<g>
	<path class="st0" d="M32.9,58.5H6.1c-3.4,0-6.1-2.7-6.1-6.1V6.1C0,2.7,2.7,0,6.1,0h26.8C36.3,0,39,2.7,39,6.1v46.3
		C39,55.8,36.3,58.5,32.9,58.5z M6.1,2.4c-2,0-3.7,1.6-3.7,3.7v46.3c0,2,1.6,3.7,3.7,3.7h26.8c2,0,3.7-1.6,3.7-3.7V6.1
		c0-2-1.6-3.7-3.7-3.7C32.9,2.4,6.1,2.4,6.1,2.4z"/>
	<path class="st0" d="M19.5,41.5c-6.7,0-12.2-5.5-12.2-12.2s5.5-12.2,12.2-12.2s12.2,5.5,12.2,12.2S26.2,41.5,19.5,41.5z M19.5,19.5
		c-5.4,0-9.8,4.4-9.8,9.8s4.4,9.8,9.8,9.8s9.8-4.4,9.8-9.8S24.9,19.5,19.5,19.5z"/>
	<path class="st0" d="M11.8,38.2c-0.3,0-0.6-0.1-0.9-0.4c-0.5-0.5-0.5-1.3,0-1.7l7.4-7.4V18.3c0-0.7,0.5-1.2,1.2-1.2
		s1.2,0.5,1.2,1.2v11c0,0.3-0.1,0.6-0.4,0.9l-7.8,7.8C12.4,38.1,12.1,38.2,11.8,38.2z"/>
	<path class="st0" d="M24.4,7.3h-9.8c-2,0-3.7-1.6-3.7-3.7c0-0.7-0.6-1.2-1.2-1.2H7.3c-0.7,0-1.2-0.5-1.2-1.2S6.6,0,7.3,0h2.4
		c2,0,3.7,1.6,3.7,3.7c0,0.7,0.6,1.2,1.2,1.2h9.8c0.7,0,1.2-0.6,1.2-1.2c0-2,1.6-3.7,3.7-3.7h2.4c0.7,0,1.2,0.6,1.2,1.2
		s-0.5,1.2-1.2,1.2h-2.4c-0.7,0-1.2,0.5-1.2,1.2C28,5.7,26.4,7.3,24.4,7.3z"/>
</g>
</svg>
