<?xml version="1.0" encoding="utf-8"?>
<!-- Generator: Adobe Illustrator 24.1.3, SVG Export Plug-In . SVG Version: 6.00 Build 0)  -->
<svg version="1.1" id="圖層_1" xmlns="http://www.w3.org/2000/svg" xmlns:xlink="http://www.w3.org/1999/xlink" x="0px" y="0px"
	 viewBox="0 0 91 91" style="enable-background:new 0 0 91 91;" xml:space="preserve">
<style type="text/css">
	.st0{fill:#008DFF;}
</style>
<g>
	<g>
		<path class="st0" d="M86.4,9.6h-6V4.8c0-2.6-2.2-4.8-4.8-4.8H14.7C12,0,9.9,2.1,9.9,4.8v4.8H4.6C2.1,9.6,0,11.7,0,14.2v18.2
			c0,1,0.8,1.8,1.8,1.8s1.8-0.8,1.8-1.8V14.2c0-0.6,0.5-1.1,1.1-1.1h5.2v46H3.5V48.4c0-1-0.8-1.8-1.8-1.8S0,47.4,0,48.4v18.2
			c0,2.6,2.1,4.6,4.6,4.6h25.9l-3.6,7.3H24c-3.5,0-6.3,2.8-6.3,6.3v4.5c0,1,0.8,1.8,1.8,1.8h52c1,0,1.8-0.8,1.8-1.8v-4.5
			c0-3.5-2.8-6.3-6.3-6.3h-2.9l-3.6-7.3h25.9c2.6,0,4.6-2.1,4.6-4.6V14.2C91,11.7,88.9,9.6,86.4,9.6L86.4,9.6z M13.4,4.8
			c0-0.7,0.6-1.2,1.2-1.2h60.9c0.7,0,1.2,0.6,1.2,1.2v9.5H13.4V4.8z M13.4,17.9h63.3v41.3H13.4V17.9z M69.7,84.7v2.7H21.3v-2.7
			c0-1.5,1.2-2.7,2.7-2.7h43C68.5,82,69.7,83.2,69.7,84.7z M60.1,78.5H30.9l3.6-7.3h22L60.1,78.5z M87.4,66.6c0,0.6-0.5,1.1-1.1,1.1
			H4.6c-0.6,0-1.1-0.5-1.1-1.1v-3.9h83.9L87.4,66.6L87.4,66.6z M87.4,59.1h-7.1v-46h6c0.6,0,1.1,0.5,1.1,1.1
			C87.4,14.2,87.4,59.1,87.4,59.1z"/>
		<path class="st0" d="M63,7.1L63,7.1c-1,0-1.8,0.8-1.8,1.8s0.8,1.8,1.8,1.8c1,0,1.8-0.8,1.8-1.8S64,7.1,63,7.1L63,7.1z"/>
		<path class="st0" d="M70.4,7.1L70.4,7.1c-1,0-1.8,0.8-1.8,1.8s0.8,1.8,1.8,1.8s1.8-0.8,1.8-1.8S71.3,7.1,70.4,7.1L70.4,7.1z"/>
		<path class="st0" d="M55.7,7.1L55.7,7.1c-1,0-1.8,0.8-1.8,1.8s0.8,1.8,1.8,1.8s1.8-0.8,1.8-1.8S56.7,7.1,55.7,7.1z"/>
		<path class="st0" d="M40.3,7.1H19.9c-1,0-1.8,0.8-1.8,1.8s0.8,1.8,1.8,1.8h20.4c1,0,1.8-0.8,1.8-1.8S41.3,7.1,40.3,7.1z"/>
		<path class="st0" d="M60.4,36.2h10.1c0.6,0,1.1-0.3,1.5-0.8c0.3-0.5,0.4-1.1,0.2-1.7c-1.9-5-6.9-8.4-12.2-8.4
			c-5,0-9.5,2.9-11.7,7.3H42c-2.2-4.4-6.8-7.3-11.7-7.3c-5.4,0-10.3,3.4-12.2,8.4c-0.2,0.5-0.1,1.2,0.2,1.6s0.9,0.8,1.5,0.8h8.8
			c1.3,0,2.3,1,2.3,2.3c0,1.3-1,2.3-2.3,2.3h-8.8c-0.6,0-1.1,0.3-1.5,0.8c-0.3,0.5-0.4,1.1-0.2,1.6c1.9,5,6.9,8.4,12.2,8.4
			c5,0,9.5-2.9,11.7-7.3h6.2c2.2,4.4,6.8,7.3,11.7,7.3c5.4,0,10.3-3.4,12.2-8.4c0.2-0.5,0.1-1.2-0.2-1.7c-0.3-0.5-0.9-0.8-1.5-0.8
			H60.4c-1.3,0-2.3-1-2.3-2.3C58.1,37.2,59.1,36.2,60.4,36.2L60.4,36.2z M60.4,44.3h7.1C65.7,46.6,62.9,48,60,48
			c-3.9,0-7.5-2.5-8.9-6.1c-0.3-0.7-0.9-1.1-1.7-1.1h-8.5c-0.7,0-1.4,0.5-1.7,1.1c-1.4,3.7-5,6.1-8.9,6.1c-3,0-5.8-1.4-7.6-3.7h5.8
			c3.2,0,5.8-2.6,5.8-5.8s-2.6-5.8-5.9-5.8h-5.8c1.8-2.3,4.6-3.7,7.6-3.7c3.9,0,7.5,2.5,8.9,6.1c0.3,0.7,0.9,1.1,1.7,1.1h8.5
			c0.7,0,1.4-0.5,1.7-1.1c1.4-3.7,5-6.1,8.9-6.1c3,0,5.8,1.4,7.6,3.7h-7.1c-3.2,0-5.8,2.6-5.8,5.8C54.5,41.7,57.2,44.3,60.4,44.3z"
			/>
		<path class="st0" d="M1.8,42.2c1,0,1.8-0.8,1.8-1.8s-0.8-1.8-1.8-1.8S0,39.4,0,40.4v0C0,41.4,0.8,42.2,1.8,42.2z"/>
	</g>
</g>
</svg>
