<?xml version="1.0" encoding="utf-8"?>
<!-- Generator: Adobe Illustrator 24.1.3, SVG Export Plug-In . SVG Version: 6.00 Build 0)  -->
<svg version="1.1" id="圖層_1" xmlns="http://www.w3.org/2000/svg" xmlns:xlink="http://www.w3.org/1999/xlink" x="0px" y="0px"
	 viewBox="0 0 91.8 91.8" style="enable-background:new 0 0 91.8 91.8;" xml:space="preserve">
<style type="text/css">
	.st0{fill:#008DFF;}
</style>
<g>
	<g>
		<path class="st0" d="M69.5,13c1,0,1.8-0.8,1.8-1.8s-0.8-1.8-1.8-1.8h0c-1,0-1.8,0.8-1.8,1.8C67.7,12.2,68.6,13,69.5,13z"/>
		<path class="st0" d="M79.2,13c1,0,1.8-0.8,1.8-1.8s-0.8-1.8-1.8-1.8h0c-1,0-1.8,0.8-1.8,1.8C77.4,12.2,78.2,13,79.2,13z"/>
		<path class="st0" d="M59.9,13c1,0,1.8-0.8,1.8-1.8s-0.8-1.8-1.8-1.8h0c-1,0-1.8,0.8-1.8,1.8C58.1,12.2,58.9,13,59.9,13L59.9,13z"
			/>
		<path class="st0" d="M12.6,13h27c1,0,1.8-0.8,1.8-1.8s-0.8-1.8-1.8-1.8h-27c-1,0-1.8,0.8-1.8,1.8C10.8,12.2,11.6,13,12.6,13z"/>
		<path class="st0" d="M86.1,0H5.8C2.6,0,0,2.6,0,5.7v66.4c0,3.2,2.6,5.8,5.8,5.8h14.4c1.1,1.7,2.5,3.4,4,4.9c5.8,5.8,13.6,9,21.8,9
			s16-3.2,21.8-9c1.5-1.5,2.8-3.1,4-4.9h14.4c3.2,0,5.8-2.6,5.8-5.8V5.7C91.8,2.6,89.2,0,86.1,0L86.1,0z M5.8,3.6h80.3
			c1.2,0,2.2,1,2.2,2.2v13.1H3.6V5.7C3.6,4.6,4.6,3.6,5.8,3.6z M86.1,74.3H73.7c5.5-11.5,3.5-25.7-6-35.2c-4.8-4.8-11-7.9-17.7-8.8
			c-6.5-0.9-13.3,0.4-19,3.6c-0.9,0.5-1.2,1.6-0.7,2.4s1.6,1.2,2.4,0.7c10.6-5.9,23.9-4,32.5,4.6c10.6,10.6,10.6,27.9,0,38.6
			c-5.2,5.2-12,8-19.3,8s-14.1-2.8-19.3-8c-8.5-8.6-10.4-21.9-4.6-32.5c0.5-0.9,0.2-2-0.7-2.4s-2-0.2-2.4,0.7
			c-3.2,5.7-4.4,12.5-3.6,19c0.4,3.3,1.4,6.4,2.8,9.3H5.8c-1.2,0-2.2-1-2.2-2.2V22.5h84.7v49.7C88.2,73.3,87.3,74.3,86.1,74.3
			L86.1,74.3z"/>
		<path class="st0" d="M45.9,71.3c1,0,1.8-0.8,1.8-1.8v-4.3c0-1-0.8-1.8-1.8-1.8s-1.8,0.8-1.8,1.8v4.3
			C44.1,70.5,44.9,71.3,45.9,71.3z"/>
		<path class="st0" d="M45.9,81.5c8.5,0,15.4-6.9,15.4-15.4v-6.9c0-2.3-1.7-4.3-3.9-4.7v-4.7c0-5.3-4.3-9.6-9.6-9.6H44
			c-5.3,0-9.6,4.3-9.6,9.6v4.7c-2.2,0.4-3.9,2.4-3.9,4.7v6.9C30.5,74.6,37.4,81.5,45.9,81.5z M38,49.9c0-3.3,2.7-6,6-6h3.8
			c3.3,0,6,2.7,6,6v4.6H38V49.9z M34.1,59.3c0-0.6,0.5-1.2,1.2-1.2h21.2c0.6,0,1.2,0.5,1.2,1.2v6.9c0,6.5-5.3,11.8-11.8,11.8
			s-11.8-5.3-11.8-11.8L34.1,59.3z"/>
		<path class="st0" d="M24.1,39.1c-0.7,0.7-0.7,1.8,0,2.5c0.4,0.3,0.8,0.5,1.3,0.5c0.5,0,0.9-0.2,1.3-0.5l0,0c0.7-0.7,0.7-1.8,0-2.5
			C25.9,38.4,24.8,38.4,24.1,39.1L24.1,39.1z"/>
	</g>
</g>
</svg>
