<?xml version="1.0" encoding="utf-8"?>
<!-- Generator: Adobe Illustrator 24.1.3, SVG Export Plug-In . SVG Version: 6.00 Build 0)  -->
<svg version="1.1" id="圖層_1" xmlns="http://www.w3.org/2000/svg" xmlns:xlink="http://www.w3.org/1999/xlink" x="0px" y="0px"
	 viewBox="0 0 91.8 77.5" style="enable-background:new 0 0 91.8 77.5;" xml:space="preserve">
<style type="text/css">
	.st0{fill:#008DFF;}
</style>
<g id="XMLID_1736_">
	<g id="XMLID_529_">
		<path id="XMLID_540_" class="st0" d="M89.8,56.9c1.2-1.2,2-2.8,2-4.7c0-2.8-1.7-5.1-4.2-6.1c0.6-1,0.9-2.1,0.9-3.3
			c0-3.6-2.9-6.5-6.5-6.5H55.6l3.6-3.6c2-2,3.2-4.7,3.3-7.5c0.1-2.8-0.8-5.6-2.7-7.8c-1.4-1.7-4-1.9-5.7-0.5L40.8,27.8
			c-2.9,2.4-5.4,5.3-7.4,8.5H1.8c-1,0-1.8,0.8-1.8,1.8s0.8,1.8,1.8,1.8h32.7c0.6,0,1.2-0.3,1.6-0.9c1.8-3.2,4.2-6.1,7.1-8.4
			l13.2-10.9c0.2-0.2,0.5-0.1,0.7,0.1c2.6,3,2.4,7.6-0.4,10.4l-4,4c-1,1-1.3,2.4-0.7,3.7c0.5,1.3,1.8,2.1,3.1,2.1h6.5
			c-0.4,0.9-0.7,1.9-0.7,2.9c0,1.8,0.8,3.5,2,4.7c-1.2,1.2-2,2.8-2,4.7s0.8,3.5,2,4.7c-1.2,1.2-2,2.8-2,4.7c0,1.8,0.8,3.5,2,4.7
			c-1.2,1.2-2,2.8-2,4.7c0,1,0.3,2,0.7,2.9H45.2c-3,0-5.8-1.1-8-3.2c-0.7-0.7-1.8-0.7-2.5,0.1c-0.7,0.7-0.7,1.8,0.1,2.5
			c2.8,2.7,6.5,4.2,10.4,4.2h36.9c3.6,0,6.5-2.9,6.5-6.5c0-1.2-0.3-2.4-0.9-3.3c2.4-0.9,4.2-3.3,4.2-6.1
			C91.8,59.7,91,58.1,89.8,56.9L89.8,56.9z M64.5,42.8c0-1.6,1.3-2.9,2.9-2.9h14.6c1.6,0,2.9,1.3,2.9,2.9c0,1.6-1.3,2.9-2.9,2.9
			H67.4C65.8,45.7,64.5,44.4,64.5,42.8z M64.5,52.2c0-1.6,1.3-2.9,2.9-2.9h17.9c1.6,0,2.9,1.3,2.9,2.9c0,1.6-1.3,2.9-2.9,2.9H67.4
			C65.8,55.1,64.5,53.8,64.5,52.2z M82.1,73.9H67.4c-1.6,0-2.9-1.3-2.9-2.9c0-1.6,1.3-2.9,2.9-2.9h14.6c1.6,0,2.9,1.3,2.9,2.9
			C85,72.6,83.7,73.9,82.1,73.9z M85.3,64.5H67.4c-1.6,0-2.9-1.3-2.9-2.9c0-1.6,1.3-2.9,2.9-2.9h17.9c1.6,0,2.9,1.3,2.9,2.9
			C88.2,63.2,86.9,64.5,85.3,64.5z"/>
		<path id="XMLID_556_" class="st0" d="M19.8,70.2h-18C0.8,70.2,0,71,0,72s0.8,1.8,1.8,1.8h18c1,0,1.8-0.8,1.8-1.8
			S20.8,70.2,19.8,70.2z"/>
		<path id="XMLID_1010_" class="st0" d="M66.4,12.4l3.1,2.2l-1.2,3.6c-0.5,1.5,0,3,1.3,3.9c0.6,0.5,1.3,0.7,2.1,0.7s1.4-0.2,2.1-0.7
			l3.1-2.3l3.1,2.2c1.3,0.9,2.9,0.9,4.1,0s1.8-2.5,1.3-3.9L84,14.6l3.1-2.2c1.3-0.9,1.8-2.4,1.3-3.9S86.6,6,85.1,6h-3.8l-1.2-3.6
			C79.6,0.9,78.3,0,76.7,0l0,0c-1.6,0-2.8,0.9-3.3,2.4L72.2,6h-3.8c-1.6,0-2.8,0.9-3.3,2.4C64.6,9.9,65.1,11.5,66.4,12.4z M73.5,9.6
			c0.8,0,1.5-0.5,1.7-1.2l1.5-4.6l1.5,4.6c0.2,0.7,0.9,1.2,1.7,1.2h4.9l-3.9,2.8c-0.6,0.5-0.9,1.3-0.7,2l1.5,4.6l-3.9-2.8
			c-0.6-0.5-1.5-0.5-2.1,0l-3.9,2.9l1.5-4.6c0.2-0.7,0-1.6-0.7-2l-3.9-2.8H73.5z"/>
		<path id="XMLID_1011_" class="st0" d="M27.9,70.2c-0.5,0-0.9,0.2-1.3,0.5c-0.3,0.3-0.5,0.8-0.5,1.3s0.2,0.9,0.5,1.3
			c0.3,0.3,0.8,0.5,1.3,0.5c0.5,0,0.9-0.2,1.3-0.5c0.3-0.3,0.5-0.8,0.5-1.3s-0.2-0.9-0.5-1.3S28.4,70.2,27.9,70.2z"/>
	</g>
</g>
</svg>
